<?xml version="1.0" encoding="UTF-8"?>
<svg id="Layer_1" data-name="Layer 1" xmlns="http://www.w3.org/2000/svg" viewBox="0 0 64 64">
  <defs>
    <style>
      .cls-1 {
        fill: #0f1f17;
      }
    </style>
  </defs>
  <path class="cls-1" d="M31.49,29.05l-4.35-8.34c-1.54-2.95-1.95-6.36-1.15-9.59h0c.68-2.77,3.16-4.72,6.02-4.72h0c2.85,0,5.34,1.95,6.02,4.72h0c.79,3.23.38,6.64-1.15,9.59l-4.35,8.34c-.22.42-.81.42-1.03,0Z"/>
  <path class="cls-1" d="M32.51,34.95l4.35,8.34c1.54,2.95,1.95,6.36,1.15,9.59h0c-.68,2.77-3.16,4.72-6.02,4.72h0c-2.85,0-5.34-1.95-6.02-4.72h0c-.79-3.23-.38-6.64,1.15-9.59l4.35-8.34c.22-.42.81-.42,1.03,0Z"/>
  <path class="cls-1" d="M34.95,31.49l8.34-4.35c2.95-1.54,6.36-1.95,9.59-1.15h0c2.77.68,4.72,3.16,4.72,6.02h0c0,2.85-1.95,5.34-4.72,6.02h0c-3.23.79-6.64.38-9.59-1.15l-8.34-4.35c-.42-.22-.42-.81,0-1.03Z"/>
  <path class="cls-1" d="M36.22,27.2l2.42-7.38c.85-2.61,2.62-4.85,4.97-6.29h0c2.02-1.24,4.58-.96,6.21.66h0c1.63,1.63,1.9,4.19.66,6.21h0c-1.44,2.35-3.68,4.12-6.29,4.97l-7.38,2.42c-.37.12-.71-.22-.59-.59Z"/>
  <path class="cls-1" d="M27.78,36.8l-2.42,7.38c-.85,2.61-2.62,4.85-4.97,6.29h0c-2.02,1.24-4.58.96-6.21-.66h0c-1.63-1.63-1.9-4.19-.66-6.21h0c1.44-2.35,3.68-4.12,6.29-4.97l7.38-2.42c.37-.12.71.22.59.59Z"/>
  <path class="cls-1" d="M36.8,36.22l7.38,2.42c2.61.85,4.85,2.62,6.29,4.97h0c1.24,2.02.96,4.58-.66,6.21h0c-1.63,1.63-4.19,1.9-6.21.66h0c-2.35-1.44-4.12-3.68-4.97-6.29l-2.42-7.38c-.12-.37.22-.71.59-.59Z"/>
  <path class="cls-1" d="M27.2,27.78l-7.38-2.42c-2.61-.85-4.85-2.62-6.29-4.97h0c-1.24-2.02-.96-4.58.66-6.21h0c1.63-1.63,4.19-1.9,6.21-.66h0c2.35,1.44,4.12,3.68,4.97,6.29l2.42,7.38c.12.37-.22.71-.59.59Z"/>
  <path class="cls-1" d="M29.05,32.51l-8.34,4.35c-2.95,1.54-6.36,1.95-9.59,1.15h0c-2.77-.68-4.72-3.16-4.72-6.02h0c0-2.85,1.95-5.34,4.72-6.02h0c3.23-.79,6.64-.38,9.59,1.15l8.34,4.35c.42.22.42.81,0,1.03Z"/>
</svg>